<svg version="1.1" id="Layer_1" xmlns="http://www.w3.org/2000/svg" xmlns:xlink="http://www.w3.org/1999/xlink" x="0px" y="0px"
   width="283.46px" height="283.46px" viewBox="0 0 283.46 283.46" enable-background="new 0 0 283.46 283.46" xml:space="preserve">
<g>
  <g>
    <g>
      <path fill="#CCCCCC" d="M71.823,141.637c0-8.617-6.977-15.6-15.59-15.6c-8.611,0-15.598,6.982-15.598,15.6
        s6.986,15.6,15.598,15.6C64.847,157.236,71.823,150.254,71.823,141.637z"/>
    </g>
  </g>
  <g>
    <g>
      <path fill="#CCCCCC" d="M114.333,212.484c0-8.615-6.977-15.6-15.59-15.6c-8.611,0-15.596,6.984-15.596,15.6
        c0,8.617,6.984,15.602,15.596,15.602C107.356,228.086,114.333,221.102,114.333,212.484z"/>
    </g>
  </g>
  <g>
    <g>
      <path fill="#CCCCCC" d="M199.353,212.484c0-8.615-6.975-15.6-15.588-15.6s-15.598,6.984-15.598,15.6
        c0,8.617,6.984,15.602,15.598,15.602S199.353,221.102,199.353,212.484z"/>
    </g>
  </g>
  <g>
    <g>
      <path fill="#CCCCCC" d="M241.862,141.637c0-8.617-6.977-15.6-15.59-15.6c-8.611,0-15.598,6.982-15.598,15.6
        s6.986,15.6,15.598,15.6C234.886,157.236,241.862,150.254,241.862,141.637z"/>
    </g>
  </g>
  <g>
    <g>
      <g>
        <path fill="#CCCCCC" d="M114.333,70.783c0-8.615-6.975-15.6-15.588-15.6s-15.598,6.984-15.598,15.6
          c0,8.617,6.984,15.602,15.598,15.602S114.333,79.4,114.333,70.783z"/>
      </g>
    </g>
    <g>
      <g>
        <path fill="#CCCCCC" d="M125.812,120.402c-1.529,0-3.02-0.779-3.863-2.186l-11.627-19.379c-1.278-2.131-0.587-4.895,1.544-6.174
          c2.131-1.278,4.896-0.587,6.174,1.544l11.627,19.379c1.278,2.131,0.587,4.895-1.544,6.174
          C127.398,120.195,126.6,120.402,125.812,120.402z"/>
      </g>
    </g>
  </g>
  <g>
    <g>
      <g>
        <path fill="#CCCCCC" d="M156.843,141.634c0-8.615-6.975-15.6-15.588-15.6s-15.598,6.984-15.598,15.6
          c0,8.617,6.984,15.602,15.598,15.602S156.843,150.251,156.843,141.634z"/>
      </g>
    </g>
    <g>
      <g>
        <path fill="#CCCCCC" d="M168.321,191.253c-1.528,0-3.019-0.779-3.862-2.186l-11.627-19.379
          c-1.279-2.132-0.588-4.896,1.543-6.174c2.13-1.281,4.895-0.588,6.174,1.543l11.627,19.379c1.279,2.132,0.588,4.896-1.543,6.174
          C169.908,191.046,169.109,191.253,168.321,191.253z"/>
      </g>
    </g>
  </g>
  <g>
    <g>
      <g>
        <path fill="#CCCCCC" d="M83.301,191.253c-1.529,0-3.02-0.779-3.863-2.186l-11.627-19.379c-1.278-2.132-0.587-4.896,1.544-6.174
          c2.131-1.281,4.895-0.587,6.174,1.543l11.627,19.379c1.278,2.132,0.587,4.896-1.544,6.174
          C84.887,191.046,84.089,191.253,83.301,191.253z"/>
      </g>
    </g>
  </g>
  <g>
    <g>
      <g>
        <path fill="#CCCCCC" d="M199.197,191.253c-0.788,0-1.586-0.207-2.312-0.643c-2.131-1.278-2.822-4.042-1.543-6.174l11.627-19.379
          c1.279-2.131,4.042-2.822,6.174-1.543c2.131,1.278,2.822,4.042,1.543,6.174l-11.627,19.379
          C202.216,190.474,200.726,191.253,199.197,191.253z"/>
      </g>
    </g>
  </g>
  <g>
    <g>
      <g>
        <path fill="#CCCCCC" d="M168.167,70.783c0-8.615,6.975-15.6,15.588-15.6s15.598,6.984,15.598,15.6
          c0,8.617-6.984,15.602-15.598,15.602S168.167,79.4,168.167,70.783z"/>
      </g>
    </g>
    <g>
      <g>
        <path fill="#CCCCCC" d="M156.688,120.402c-0.788,0-1.586-0.207-2.312-0.642c-2.131-1.279-2.822-4.043-1.543-6.174l11.627-19.379
          c1.279-2.131,4.042-2.821,6.174-1.544c2.131,1.279,2.822,4.043,1.543,6.174l-11.627,19.379
          C159.707,119.623,158.217,120.402,156.688,120.402z"/>
      </g>
    </g>
  </g>
  <g>
    <g>
      <g>
        <path fill="#CCCCCC" d="M114.178,191.253c-0.788,0-1.586-0.207-2.311-0.643c-2.131-1.278-2.822-4.042-1.544-6.174l11.627-19.379
          c1.278-2.131,4.043-2.823,6.174-1.543c2.131,1.278,2.822,4.042,1.544,6.174l-11.627,19.379
          C117.198,190.474,115.707,191.253,114.178,191.253z"/>
      </g>
    </g>
  </g>
</g>
</svg>
